# xmcd
#
# Track frame offsets: 
#        182
#        16397
#        32420
#        49977
#        60257
#        74335
#        89682
#        110872
#        128000
#        142152
#        161570
#
# Disc length: 2309 seconds
#
# Revision: 0
# Processed by: cddbd v1.4PL0 Copyright (c) Steve Scherf et al.
# Submitted via: ExactAudioCopy v0.90b2
#
DISCID=9b09030b
DTITLE=Kris De Bruyne - keet in de lobby
DYEAR=1993
DGENRE=Blues
TTITLE0=Waar ik voor Leef
TTITLE1=Das Leben ist so shön (Kris de Bruyne's Nachtmerrie Blues nr. 
TTITLE1=6)
TTITLE2=Slechte Man
TTITLE3=Keet in de Lobby
TTITLE4=Het Varken van de Hoge Venen
TTITLE5=Winter in wilton
TTITLE6=Spanish Eyes
TTITLE7=De Leugens van Het Kiel
TTITLE8=Toneel
TTITLE9=Waesland 1912
TTITLE10=Terug op de Been
EXTD=
EXTT0=
EXTT1=
EXTT2=
EXTT3=
EXTT4=
EXTT5=
EXTT6=
EXTT7=
EXTT8=
EXTT9=
EXTT10=
PLAYORDER=
